<?xml version="1.0" encoding="UTF-8"?>
<!DOCTYPE svg PUBLIC "-//W3C//DTD SVG 1.1//EN" "http://www.w3.org/Graphics/SVG/1.1/DTD/svg11.dtd">
<!-- Creator: CorelDRAW (Versión OEM) -->
<svg xmlns="http://www.w3.org/2000/svg" xml:space="preserve" width="63.3041mm" height="67.5543mm" version="1.1" style="shape-rendering:geometricPrecision; text-rendering:geometricPrecision; image-rendering:optimizeQuality; fill-rule:evenodd; clip-rule:evenodd"
viewBox="0 0 7368.54 7863.26"
 xmlns:xlink="http://www.w3.org/1999/xlink"
 xmlns:xodm="http://www.corel.com/coreldraw/odm/2003">
 <defs>
  <style type="text/css">
   <![CDATA[
    .fil0 {fill:#00AFEF}
    .fil1 {fill:#00AFEF}
   ]]>
  </style>
 </defs>
 <g id="Capa_x0020_1">
  <metadata id="CorelCorpID_0Corel-Layer"/>
  <g id="_2107358010464">
   <path class="fil0" d="M4362.97 0.13c88.44,0.02 273.5,81.54 266.29,269.65 -7.4,192.69 -126.26,168.25 -125.69,272.07 6.11,1096.01 -1.91,2897.79 -0.54,2943.21 2.83,93.84 346.02,274.22 339.22,580.85 -5.61,253.39 -182.23,463.52 -478.77,463.57 -296.54,0.05 -504.86,-224.77 -506.66,-468.1 -2.46,-332.25 358.86,-495.8 358.86,-586.05 0,-90.15 1.91,-1877.53 2.05,-2923.14 0.01,-101.88 -140.85,-108.72 -133.4,-294.61 7.76,-193.73 164.6,-257.49 278.65,-257.46z"/>
   <path class="fil1" d="M5194.37 232.39c42.14,41.66 1287.3,1278.41 1490.72,1479.01 170.27,167.91 176.85,190 176.79,281.32 -0.02,32.39 0.43,685.12 0.42,863.6 0,98.89 6.55,125.45 61.78,180.29 56.92,56.51 213.17,211.04 321.87,318.92 134.36,133.39 116.27,95.75 118.47,303.15 0.42,39.44 6.24,934.01 3.27,1023.9 -3.11,94.47 -36.46,145.53 -75.83,184.98 -20.15,20.2 -266.2,280.77 -380.61,388.2 -9.03,8.49 -48.93,40.03 -48.93,97.39 0,86.85 0.08,683.88 0.01,810.48 -0.02,59.98 -11.8,83.96 -110.31,183.33 -71.9,72.53 -1259.34,1269.84 -1395.03,1406.52 -84.14,84.76 -107.96,109.65 -232.24,109.65 -62.8,0 -202.94,0.01 -324.47,0 -36.86,0 -106.55,-60.47 -157.45,-110.36 -62.13,-60.92 -88.37,-111.55 -88.36,-152.15 0.02,-59.54 -0.01,-758.83 -0.01,-831.09 0,-29.23 0.79,-537.34 0.79,-612.35 0,-201.88 65.68,-238.51 116.31,-289.57 345.78,-348.71 901.3,-907.81 1034.53,-1043.32 65.89,-67.02 53.11,-86.66 52.93,-186.81 -0.03,-19.69 2.44,-1020.74 2.34,-1404.7 -0.03,-132.71 -11.86,-130.66 -66.2,-184.5 -41.28,-40.91 -264.34,-262.05 -344.86,-342.04 -10.46,-10.39 -123.39,32.1 -249.86,-79.31 -89.3,-78.67 -139.02,-272.3 22.45,-408.71 130.67,-110.37 257.3,-68.91 352.31,17.87 111.63,101.95 50.06,240.67 64.61,255.09 135.5,134.22 420.12,416.67 434.16,430.61 82.19,81.56 70.54,102.61 70.54,219.89 0,59.79 -0.1,1614.32 -0.1,1661.63 0,64.04 -37.12,123.81 -59.6,146.48 -74.46,75.12 -852.74,862.2 -1040.92,1050.19 -100.34,100.23 -103.35,97.87 -103.4,272.09 -0.03,139.28 -0.19,464.55 0.01,485.65 1.4,145.95 0.03,652.07 -0.05,677.26 -0.08,23.2 33.76,51.68 69.5,81.88 31.26,26.42 64.94,56.45 91.25,56.14 30.24,-0.37 73.59,-0.07 100.06,-0.2 36.28,-0.19 31.71,0.38 81.54,-49.85 26.85,-27.07 1379.48,-1390.99 1393.41,-1404.96 0,-45 0.06,-579.39 -0.05,-816.76 -0.02,-59.56 18.51,-121.33 20.2,-123.25 32.34,-36.99 387.38,-443.72 406.93,-465.65 57.44,-64.38 73.86,-81.48 73.86,-155.39 0,-196.39 0.09,-707.89 0.07,-779.86 -0.09,-194.54 28.05,-158.07 -95.49,-280.64 -93.1,-92.35 -241.43,-239.26 -360.71,-357.54 -50.96,-50.53 -44.8,-55.17 -44.8,-132.57 0,-106.69 0.01,-796.13 0.01,-892.45 0,-70.04 9.34,-99.78 -57.75,-165.6 -28.84,-28.31 -1588.39,-1574.74 -1622.7,-1608.64 -53.76,-53.12 -109.31,-122.08 -0.93,-222.36 109.37,-101.19 215.25,31.79 299.54,115.13z"/>
   <path class="fil1" d="M2634.87 1121.69c141.31,0 256.92,129.68 256.92,264.84 0,135.16 -106.56,266.71 -247.51,256.85 -37.74,-2.63 -49.71,7.24 -73.26,30.88 -15.71,15.77 -427.72,429.09 -556.19,558.01 -36.97,37.11 -48.78,70.67 -48.78,144.28 0,47.19 7.98,1869.61 7.98,2728.1 0,104.34 -2.86,107.26 43.6,153.32 20.01,19.83 827.42,821.04 870.13,863.6 177.64,177 168.67,153.09 172.35,468.51 1.07,91.97 3.83,831.74 1.98,897.94 -0.64,22.95 22.64,41.05 46.13,59.78 19.67,15.7 38.91,28.61 52.08,28.58 16.7,-0.05 174.32,-0.62 314.24,-0.72 122.88,-0.08 92.82,9.23 178.87,-77.51 76.42,-77.02 58,-68.05 58,-174.72 0,-113.35 0.01,-299.38 0.01,-378.52 0,-22.08 -0.29,-689.61 -0.29,-1044.66 0,-192.41 0.63,-202.56 -159.19,-360.74 -15.98,-15.81 -855.51,-848.93 -963.68,-956.07 -61.63,-61.04 -79.64,-96.09 -79.64,-166.35 0,-28.26 0,-1332.59 0,-1416.02 0,-132.3 12.51,-146.56 69.92,-207.6 230.6,-245.14 519.73,-539.99 645.28,-687.16 50.28,-58.94 55.58,-77.96 55.58,-183.53 0,-29.39 0.01,-927.14 0.01,-1412.3 0,-57.84 -3.81,-76.85 -58.42,-137.42 -69.35,-76.94 -71.29,-88.78 -138.56,-88.15 -21.63,0.2 -202.2,-0.83 -334.15,0.74 -20.65,0.24 -262.71,249.33 -325.6,312.48 -18.57,18.66 -1071.92,1070.13 -1343.62,1347.9 -64.6,66.03 -55.48,98.73 -55.48,178.2 0,36.41 -0.81,3613.29 -0.81,3944.09 0,124.49 -11.6,103.47 44.63,159.94 0,0 -186.72,217.39 -186.72,217.39 -139.91,-138.64 -144.01,-128.74 -144.01,-243.6 0,-18.34 0.21,-244.76 0.02,-657.79 -0.01,-24.32 -7.45,-39.55 -31.37,-70.46 -25.08,-32.41 -32.42,-47.44 -62.24,-47.86 -118.65,-1.66 -333.03,-0.97 -488.03,-0.55 -78.69,0.21 -70.54,0.98 -111.16,-43.54 -43.37,-47.54 -43.79,-42.86 -43.79,-129.68 0,-92.64 -0.26,-89.65 43.13,-125.65 52.67,-43.71 39.74,-35.52 111.27,-35.79 83.9,-0.31 454.53,0.65 488.2,0.55 29.94,-0.09 46.13,-21.11 61.46,-37.89 17.59,-19.24 32.52,-33.01 32.52,-54.93 0,-137.54 -0.05,-224.02 0,-372.09 0,-14.98 -14.83,-29.68 -27.19,-40.97 -28.1,-25.63 -26.82,-28.87 -66.86,-29.08 -49.81,-0.27 -302.81,3.68 -487.41,3.27 -72.64,-0.15 -61.14,6.66 -111.79,-43.96 -42.68,-42.67 -43.44,-52.69 -43.44,-161.95 0,-107.16 13.05,-105.49 42.35,-134.27 44.1,-43.32 39.23,-36.77 114.3,-36.54 184.26,0.59 447.55,-0.68 484.59,-1.14 28.23,-0.35 45.31,-17.37 61.59,-30.66 18.01,-14.71 33.85,-27.12 33.85,-54.15 0,-139.96 -0.02,-233.71 0.01,-371.86 0,-10.37 -13.46,-28.98 -37.39,-50.09 -30.73,-27.1 -36.67,-30.6 -58.8,-30.25 -46.62,0.74 -421.85,-3.24 -485.31,-3 -82.65,0.3 -78.8,5.12 -112.56,-22.92 -27.19,-22.58 -42.6,-29.36 -42.6,-145.07 0,-92.2 1.98,-89.67 43.23,-127.36 34.62,-31.63 36.49,-27 112.01,-25.34 99.25,2.18 476.53,1.84 505.27,1.73 19.16,-0.07 29.62,-8.64 49.24,-34.86 19.43,-25.98 26.91,-31.72 26.91,-52.11 0.33,-701.22 0,-1208.44 0,-1223.91 0,-123.16 16.6,-144.21 81.75,-209.44 52.82,-52.89 1487.49,-1493.49 1513.6,-1518.47 30.1,-28.8 86.1,-91.14 142.07,-144.08 111.78,-105.7 122.7,-139.81 157.91,-139.03 83.38,1.85 727.18,-0.74 751.1,-0.85 89.62,-0.43 182.42,145.66 182.42,252.06 0,83.55 0.01,1747.43 0.01,1769.57 0.05,120.24 -8.53,126.47 -129.58,268.17 -176.76,206.92 -594.02,632.91 -603.3,643.71 -20.06,23.36 -37.92,42.85 -37.92,120.88 -0.05,334.05 0.01,1177.56 0.01,1206.46 0,105.24 12.43,135.33 77.52,199.72 304.23,301.01 895.68,889.43 926.71,920.12 215.15,212.82 198.33,212.13 198.33,409.12 0,226.8 0.24,1670.58 0.22,1680.19 -0.22,65.93 -15.81,80.19 -143.12,208.54 -164.66,166.01 -177.21,184.49 -216.94,184.39 -382.27,-1.01 -706.93,0.19 -1104.23,0.19 -253.14,0 -212.13,10.86 -391.9,-168.07 -343.61,-341.99 -1105.91,-1096.19 -1260.64,-1249.4 0,0 186.72,-217.39 186.72,-217.39 22.44,21.91 1027.48,1039.57 1280.24,1291.65 64.02,63.84 45.5,57.83 139.75,57.65 85.54,-0.15 193.43,-0.4 193.43,-0.4 27.38,-28.08 92.78,-89.36 92.82,-99.01 0.36,-82.29 0.72,-676.21 0.51,-706.25 -2.57,-370.45 21.41,-341.4 -177.66,-537.23 -185.99,-182.98 -826.5,-819.33 -844.49,-837.15 -68.12,-67.5 -63.4,-76.46 -64.8,-170.35 -1.08,-72.3 1.75,-2902.33 1.5,-2928.17 -1.35,-141.41 24.71,-169.9 90.47,-235.99 109.17,-109.75 541.78,-543.18 582.05,-583.61 25.28,-25.39 7.22,-65.97 7.22,-101.08 0,-135.16 125.12,-256.64 266.43,-256.64z"/>
  </g>
 </g>
</svg>
