<?xml version="1.0" encoding="UTF-8"?>
<!DOCTYPE svg PUBLIC "-//W3C//DTD SVG 1.1//EN" "http://www.w3.org/Graphics/SVG/1.1/DTD/svg11.dtd">
<!-- Creator: CorelDRAW -->
<svg xmlns="http://www.w3.org/2000/svg" xml:space="preserve" width="41.5172mm" height="15.9182mm" version="1.1" style="shape-rendering:geometricPrecision; text-rendering:geometricPrecision; image-rendering:optimizeQuality; fill-rule:evenodd; clip-rule:evenodd"
viewBox="0 0 710.21 272.3"
 xmlns:xlink="http://www.w3.org/1999/xlink"
 xmlns:xodm="http://www.corel.com/coreldraw/odm/2003">
 <defs>
  <style type="text/css">
   <![CDATA[
    .fil1 {fill:#727376}
    .fil3 {fill:#ED3237}
    .fil0 {fill:#727376;fill-rule:nonzero}
    .fil2 {fill:#ED3237;fill-rule:nonzero}
   ]]>
  </style>
 </defs>
 <g id="Capa_x0020_1">
  <metadata id="CorelCorpID_0Corel-Layer"/>
  <path class="fil0" d="M544.9 138l-3.89 3.62c-1.78,-2.06 -3.94,-3.39 -6.49,-4 -2.56,-0.62 -5.12,-0.4 -7.68,0.65 -3.12,1.28 -5.15,3 -6.08,5.13 -0.93,2.13 -0.97,4.22 -0.13,6.27 0.56,1.36 1.37,2.38 2.43,3.07 1.06,0.69 2.26,1.04 3.55,1.06 1.31,0.02 3.57,-0.2 6.82,-0.68 4.28,-0.61 7.39,-0.85 9.34,-0.73 1.94,0.12 3.85,0.82 5.72,2.07 1.87,1.27 3.3,3.09 4.29,5.5 1.67,4.07 1.52,7.95 -0.44,11.66 -1.97,3.69 -5.43,6.57 -10.38,8.59 -9.3,3.81 -16.83,2.22 -22.58,-4.8l4.03 -3.65c4.52,5.46 10.1,6.83 16.76,4.1 3.58,-1.46 5.94,-3.44 7.12,-5.96 1.16,-2.51 1.28,-4.9 0.35,-7.18 -0.57,-1.39 -1.41,-2.49 -2.52,-3.26 -1.11,-0.76 -2.3,-1.18 -3.57,-1.24 -1.27,-0.06 -3.23,0.11 -5.89,0.52 -4.08,0.64 -7.3,0.91 -9.69,0.82 -2.38,-0.09 -4.5,-0.75 -6.34,-1.96 -1.84,-1.21 -3.21,-2.95 -4.14,-5.21 -1.42,-3.47 -1.3,-6.9 0.34,-10.31 1.65,-3.4 4.61,-5.98 8.91,-7.74 7.9,-3.24 14.63,-2.04 20.18,3.62zm35.67 -12.14l7.83 34.25 -4.35 1.78 -1.9 -8.01c-0.52,6.79 -3.25,11.18 -8.16,13.2 -1.91,0.79 -3.74,1 -5.48,0.67 -1.74,-0.34 -3.17,-1 -4.28,-1.98 -1.12,-0.98 -2.06,-2.41 -2.82,-4.27 -0.5,-1.21 -1.07,-3.25 -1.71,-6.14l-4.29 -19.19 4.9 -2.01 4.76 20.8c0.54,2.36 0.9,3.8 1.11,4.31 0.69,1.67 1.71,2.78 3.07,3.32 1.36,0.54 2.84,0.49 4.42,-0.16 2.67,-1.09 4.54,-3.55 5.6,-7.38 1.08,-3.83 0.98,-8.55 -0.29,-14.17l-3.04 -13.13 4.61 -1.89zm25.13 39.8l-4.94 2.02 -10.4 -45.68 4.61 -1.89 1.65 6.97c1,-6.06 3.6,-9.95 7.8,-11.68 2.96,-1.21 5.94,-1.02 8.93,0.56 3,1.58 5.38,4.53 7.14,8.84 2.07,5.04 2.54,10.2 1.4,15.46 -1.13,5.24 -3.86,8.76 -8.17,10.53 -4.08,1.67 -8.03,1.11 -11.86,-1.7l3.83 16.57zm5.62 -18.5c3.52,-1.44 5.39,-4.27 5.63,-8.49 0.24,-4.21 -0.48,-8.37 -2.17,-12.48 -1.18,-2.87 -2.75,-4.79 -4.68,-5.74 -1.95,-0.94 -3.88,-1.02 -5.78,-0.24 -2.71,1.11 -4.51,3.82 -5.39,8.12 -0.88,4.31 -0.45,8.59 1.29,12.84 1.11,2.71 2.68,4.62 4.7,5.72 2.02,1.1 4.14,1.19 6.39,0.27zm45.86 -24c-1,6.96 -4.47,11.65 -10.42,14.09 -4.03,1.65 -7.85,1.68 -11.48,0.09 -3.62,-1.59 -6.36,-4.65 -8.2,-9.14 -2.26,-5.52 -2.56,-10.78 -0.92,-15.77 1.65,-4.99 4.82,-8.45 9.5,-10.36 2.31,-0.95 4.65,-1.33 7.06,-1.15 2.4,0.16 4.58,1.09 6.56,2.74 1.98,1.66 3.58,3.99 4.82,7.01 0.44,1.08 0.86,2.34 1.25,3.78l-23.58 9.67c0.29,1.07 0.56,1.93 0.83,2.58 1.2,2.93 2.94,4.99 5.22,6.18 2.28,1.2 4.73,1.26 7.35,0.19 1.81,-0.74 3.28,-1.82 4.4,-3.23 1.13,-1.41 2.01,-3.71 2.66,-6.93l4.95 0.27zm-26.27 -2.95l18.15 -7.44c-0.23,-0.69 -0.42,-1.2 -0.56,-1.54 -1.06,-2.59 -2.65,-4.36 -4.75,-5.3 -2.11,-0.94 -4.34,-0.93 -6.7,0.03 -2.67,1.09 -4.53,3.02 -5.57,5.76 -1.04,2.76 -1.24,5.58 -0.58,8.49zm40.58 5.84l-4.95 2.03 -7.77 -34.28 4.94 -2.02 1.63 5.68c0.99,-4 1.19,-4.04 2.76,-6.02 2.97,-3.75 3.16,-3.84 5.69,-4.85 0.98,-0.39 1.12,-0.24 1.32,0.62l0.34 1.46 0.41 1.78 -0.95 1.58c-1.97,0.81 -3.41,1.83 -4.34,3.08 -0.94,1.24 -1.64,2.74 -2.09,4.5 -0.46,1.77 -0.71,3.84 -0.76,6.19 -0.04,2.36 0.63,6.55 2.02,12.58l1.74 7.67z"/>
  <g id="_2181469370544">
   <path class="fil0" d="M701.44 93.69c-7.73,-1.95 -11.17,-0.7 -12.98,7.54l-20.07 87.5 -154.66 1.2 -37.64 -133.53c-1.13,-4.3 -3.98,-7.94 -7.9,-10.06l-30.58 -16.45c-8.88,-4.38 -8.59,-4.67 -13.2,3.99 -5.17,9.35 -5.19,8.2 8.32,15.79l24.44 13.14 35.41 136.24 -18.25 14.68c-2.18,1.76 -3.43,4.4 -3.4,7.2l0.21 22.82c0.05,4.99 4.09,9.03 9.08,9.04 97.09,0.49 177.56,0.86 216.08,1.04 0.04,0 0.09,-0 0.13,-0 4.98,-0.05 9.02,-4.08 9.04,-9.08 0.03,-5.04 -4.04,-9.15 -9.09,-9.18l-195.79 -0.94c-11.67,0.04 -11.34,0.85 -11.37,-5.2 -0.03,-4.32 -0.2,-3.58 7.7,-10.45l7.38 -5.93c1.42,0.41 2.91,0.68 4.45,0.67l164.32 0.01c0.05,0 0.11,-0 0.15,-0 7.44,-0.07 13.85,-5.27 15.45,-12.55l20.46 -93c1.94,-8.86 2.27,-11.98 -7.69,-14.5z"/>
   <circle class="fil1" cx="529.48" cy="263.18" r="8.89"/>
   <circle class="fil1" cx="649.95" cy="263.22" r="8.89"/>
  </g>
  <g id="_2181469372656">
   <path class="fil2" d="M0 272.3l93.58 -243.93c10.35,-26.98 8.52,-27.86 30.45,-28.28 22.32,-0.43 20.18,0.45 31.03,27.11l99.79 245.1 -41 0 -31.49 -82.5 -114.63 0 -29.53 82.5 -38.21 0zm78.32 -111.78l92.77 -0c-13.22,-35.15 -27.79,-70.97 -39.78,-106.91 -6.16,-18.46 -6.02,-17.89 -8.45,-17.87 -2.17,0.02 -1.83,-0.64 -8.22,18.93 -12.38,37.89 -23.54,70.04 -36.32,105.85zm200.17 111.78l0 -246.11c0.06,-25.07 -1.96,-25.65 16.98,-26.1 17.99,-0.43 16.37,-0.21 16.47,24.57l0 247.64 -33.46 0zm85.22 -0l0 -197.32 33.46 0 0 197.32 -33.46 0z"/>
   <circle class="fil3" cx="380.26" cy="17.85" r="17.55"/>
  </g>
 </g>
</svg>
